<?xml version="1.0" standalone="no"?><!DOCTYPE svg PUBLIC "-//W3C//DTD SVG 1.1//EN" "http://www.w3.org/Graphics/SVG/1.1/DTD/svg11.dtd"><svg t="1727340340805" class="icon" viewBox="0 0 1024 1024" version="1.1" xmlns="http://www.w3.org/2000/svg" p-id="8377" xmlns:xlink="http://www.w3.org/1999/xlink" width="37" height="37"><path d="M512 512m-460.8 0a460.8 460.8 0 1 0 921.6 0 460.8 460.8 0 1 0-921.6 0Z" fill="#F9D67A" p-id="8378"></path><path d="M772.8128 452.1472c-13.0048 34.4064-34.0992 71.4752-66.9184 109.4144 3.4816 27.0336 6.0416 85.76-26.112 136.6016-25.0368 39.5264-64.9216 65.4848-118.6304 77.2096-1.9456 0.4608-3.9424 0.6656-5.9392 0.6656-7.7824 0-15.2576-3.2768-20.6336-9.1648a27.80672 27.80672 0 0 1-5.7856-27.3408c0.1536-0.3584 11.008-34.816 8.6016-77.2608l-20.6336 3.6352L486.4 671.232l-26.112 4.608c-8.96 1.5872-18.0736-1.28-24.4736-7.68L348.672 581.0176a27.76576 27.76576 0 0 1-7.68-24.4736l5.0176-28.4672 5.4272-30.976 3.1232-17.7152c-42.7008-2.5088-76.8512 8.4992-77.2608 8.6528-4.8128 1.5872-9.8816 1.792-14.6432 0.6656-4.6592-0.9728-9.0112-3.1744-12.6976-6.4512-7.3728-6.7072-10.7008-16.8448-8.5504-26.5728 4.7616-21.7088 11.8272-41.1648 21.248-58.2656 13.7216-25.2416 32.4608-45.4656 56.0128-60.3648 50.8416-32.1536 109.568-29.5936 136.6016-26.112 36.2496-31.3856 71.68-51.968 104.8064-65.0752 110.5408-43.8784 195.3792-4.3008 199.9872-2.048 0.5632 0.256 1.024 0.5632 1.536 0.8192 0.2048 0.1024 0.4096 0.2048 0.5632 0.3072 0.512 0.3072 1.024 0.6656 1.536 1.024 0.256 0.1536 0.512 0.3072 0.768 0.512 0.4608 0.3584 0.9216 0.6656 1.3312 1.024 0.256 0.256 0.5632 0.4608 0.8192 0.7168 0.3584 0.3584 0.768 0.7168 1.1264 1.1264 0.256 0.256 0.5632 0.512 0.8192 0.8192 0.3072 0.3584 0.6656 0.768 0.9728 1.1776 0.3072 0.3072 0.512 0.5632 0.768 0.9216 0.3072 0.4096 0.5632 0.8704 0.9216 1.3312 0.1536 0.256 0.4096 0.6144 0.6144 0.9216 0.256 0.512 0.512 0.9728 0.8192 1.4848 0.1024 0.3072 0.2048 0.4608 0.3584 0.768 0.0512 0.0512 0.1536 0.256 0.256 0.4608v0.0512c3.8912 8.3456 39.424 89.344-0.4608 194.8672z" fill="#6295CC" p-id="8379"></path><path d="M555.2128 781.1584c-9.216 0-18.1248-3.9424-24.4224-10.8544a33.0496 33.0496 0 0 1-6.8608-32.4096c0.1024-0.3584 9.728-31.1296 8.6016-69.5808l-71.3728 12.544c-10.5984 1.8944-21.4016-1.536-28.9792-9.1136l-87.1424-87.1424a32.84992 32.84992 0 0 1-9.1136-28.9792l12.544-71.424c-38.8608-1.28-69.2224 8.5504-69.5296 8.6528-5.7344 1.8944-11.776 2.1504-17.5104 0.8192a32.68608 32.68608 0 0 1-14.8992-7.6288c-8.8064-8.0384-12.6976-20.0704-10.1376-31.488 4.864-22.1696 12.1856-42.24 21.76-59.648 14.1312-25.9584 33.536-46.8992 57.7536-62.208 50.0736-31.6928 106.8544-30.8224 137.728-27.136 33.2288-28.4672 68.4032-50.176 104.5504-64.4608 113.5104-45.056 200.4992-3.6864 204.1344-1.8944 0.3584 0.1536 0.768 0.4096 1.1776 0.6144a3818281237239359.5 3818281237239359.5 0 0 0 4.1472 2.6624c0.7168 0.5632 1.1264 0.8192 1.4848 1.1776 0.5632 0.4608 0.8192 0.7168 1.0752 0.9216 0.6656 0.6144 1.024 0.9728 1.3312 1.3824 0.256 0.2048 0.6144 0.5632 0.9216 0.9216 0.3072 0.4096 0.6656 0.768 0.9216 1.1264 0.4096 0.4096 0.6656 0.768 1.0752 1.28 0.1536 0.2048 0.3072 0.4608 0.512 0.768l1.4336 2.2016c0.2048 0.4096 0.3584 0.7168 0.6144 1.1264l0.4096 0.8704c0.1536 0.2048 0.256 0.4608 0.3584 0.6144l0.5632 1.28c5.7856 12.8512 38.5536 93.8496-0.768 197.888-14.2336 37.7344-36.5568 74.4448-66.3552 109.2096 3.6864 30.8224 4.5056 87.6544-27.136 137.728-25.8048 40.704-66.7648 67.4304-121.856 79.4624-2.1504 0.4608-4.5568 0.7168-7.0144 0.7168z m-13.056-124.928l0.3072 5.7344c2.5088 43.9808-8.8576 79.2576-8.96 79.5136-2.4064 7.3728-0.6144 15.872 4.864 21.9136 4.352 4.7616 10.496 7.4752 16.8448 7.4752 1.6896 0 3.2768-0.1536 4.7616-0.512 52.3776-11.4176 91.2384-36.6592 115.5072-74.9568 30.72-48.5888 29.0816-104.3456 25.344-133.2224l-0.3072-2.2528 1.4848-1.7408c29.7472-34.3552 51.9168-70.656 65.9968-107.8784 38.912-102.912 4.8128-181.8624 0.6656-190.8224l-0.2048-0.4608c-0.1536-0.3072-0.3072-0.5632-0.4096-0.8192-0.2048-0.3584-0.4096-0.768-0.6144-1.1264-0.1536-0.256-0.3072-0.4608-0.4096-0.6144-0.2048-0.3072-0.4096-0.6144-0.6144-0.8704l-0.9728-1.2288-0.6144-0.768-0.6656-0.6656c-0.3584-0.4096-0.512-0.5632-0.6656-0.7168l-0.4608-0.4096c-0.3072-0.256-0.5632-0.4608-0.8192-0.7168 0.0512 0.0512-0.0512 0-0.256-0.1536l-1.1776-0.8192c-0.4096-0.3072-0.8192-0.6144-1.28-0.8704-0.512-0.256-0.768-0.4096-1.0752-0.5632l-0.512-0.256c-3.6352-1.7408-86.6304-41.2672-195.9936 2.1504-35.6864 14.1312-70.4512 35.7376-103.3216 64.2048l-1.7408 1.4848-2.2528-0.3072c-28.8768-3.7376-84.5824-5.376-133.2224 25.344-22.7328 14.3872-40.96 34.048-54.272 58.4704-9.1136 16.5376-16.0768 35.6864-20.736 56.9344-1.7408 7.8848 0.9216 16.1792 7.0144 21.7088 2.9184 2.6112 6.5024 4.4544 10.2912 5.2224 3.9936 0.9216 8.1408 0.768 11.9808-0.512 0.1024-0.0512 35.3792-11.4688 79.1552-8.9088l5.7344 0.3584-14.5408 82.8416a22.6816 22.6816 0 0 0 6.2464 19.968l87.1424 87.1424a22.6816 22.6816 0 0 0 19.968 6.2464l82.7904-14.5408z" fill="#413D2C" p-id="8380"></path><path d="M286.976 757.248c-7.1168 0-14.2336-2.7136-19.6608-8.1408a27.87328 27.87328 0 0 1 0-39.3728L336.9984 640a27.87328 27.87328 0 0 1 39.3728 0 27.87328 27.87328 0 0 1 0 39.3728L306.6368 749.056a27.56096 27.56096 0 0 1-19.6608 8.192z" fill="#F48433" p-id="8381"></path><path d="M286.9248 762.368c-8.8064 0-17.0496-3.4304-23.296-9.6256-6.2464-6.1952-9.6256-14.4896-9.6256-23.296s3.4304-17.0496 9.6256-23.296l69.7344-69.7344a32.55296 32.55296 0 0 1 23.296-9.6256c8.8064 0 17.1008 3.4304 23.296 9.6256a32.55296 32.55296 0 0 1 9.6256 23.296c0 8.8064-3.4304 17.0496-9.6256 23.296L310.272 752.6912a32.80384 32.80384 0 0 1-23.3472 9.6768z m69.7344-125.3888c-6.0416 0-11.776 2.3552-16.0768 6.656L270.848 713.3696c-4.3008 4.3008-6.656 9.984-6.656 16.0768s2.3552 11.776 6.656 16.0768 9.984 6.656 16.0768 6.656 11.776-2.3552 16.0768-6.656l69.7344-69.7344c4.3008-4.3008 6.656-9.984 6.656-16.0256s-2.3552-11.776-6.656-16.0768a22.3744 22.3744 0 0 0-16.0768-6.7072z" fill="#413D2C" p-id="8382"></path><path d="M362.3424 793.3952c-7.1168 0-14.2336-2.7136-19.6608-8.1408a27.87328 27.87328 0 0 1 0-39.3728l30.5152-30.5152a27.87328 27.87328 0 0 1 39.3728 0 27.87328 27.87328 0 0 1 0 39.3728l-30.5152 30.5152a27.92448 27.92448 0 0 1-19.712 8.1408z" fill="#F48433" p-id="8383"></path><path d="M362.3424 798.5152c-8.8064 0-17.0496-3.4304-23.296-9.6256-6.2464-6.1952-9.6256-14.4896-9.6256-23.296s3.4304-17.0496 9.6256-23.296l30.5152-30.5152a32.9728 32.9728 0 0 1 46.592 0c6.1952 6.1952 9.6256 14.4896 9.6256 23.296s-3.4304 17.0496-9.6256 23.296l-30.5152 30.5152a32.84992 32.84992 0 0 1-23.296 9.6256z m30.5152-86.1184c-5.8368 0-11.6224 2.2016-16.0768 6.656l-30.5152 30.5152c-4.3008 4.3008-6.656 9.984-6.656 16.0768s2.3552 11.776 6.656 16.0768 9.984 6.656 16.0768 6.656c6.0416 0 11.776-2.3552 16.0768-6.656l30.5152-30.5152c4.3008-4.3008 6.656-9.984 6.656-16.0768s-2.3552-11.776-6.656-16.0768a22.6816 22.6816 0 0 0-16.0768-6.656z" fill="#413D2C" p-id="8384"></path><path d="M250.7776 681.8304c-7.1168 0-14.2336-2.7136-19.6608-8.1408a27.87328 27.87328 0 0 1 0-39.3728l30.5152-30.5152a27.87328 27.87328 0 0 1 39.3728 0 27.87328 27.87328 0 0 1 0 39.3728l-30.5152 30.5152a27.92448 27.92448 0 0 1-19.712 8.1408z" fill="#F48433" p-id="8385"></path><path d="M250.7776 686.9504c-8.8064 0-17.0496-3.4304-23.296-9.6768a32.55296 32.55296 0 0 1-9.6256-23.296c0-8.8064 3.4304-17.0496 9.6256-23.296l30.5152-30.5152a32.59904 32.59904 0 0 1 23.296-9.6768c8.8064 0 17.1008 3.4304 23.296 9.6768a32.55296 32.55296 0 0 1 9.6256 23.296c0 8.8064-3.4304 17.0496-9.6256 23.296l-30.5152 30.5152a32.68608 32.68608 0 0 1-23.296 9.6768z m30.5152-86.1696c-6.0416 0-11.776 2.3552-16.0768 6.656l-30.5152 30.5152c-4.3008 4.3008-6.656 9.984-6.656 16.0256s2.3552 11.776 6.656 16.0768c4.3008 4.3008 9.984 6.656 16.0768 6.656 6.0416 0 11.776-2.3552 16.0768-6.656l30.5152-30.5152c4.3008-4.3008 6.656-9.984 6.656-16.0768 0-6.0416-2.3552-11.776-6.656-16.0256-4.352-4.2496-10.0352-6.656-16.0768-6.656z" fill="#413D2C" p-id="8386"></path><path d="M609.5872 407.2448m-62.9248 0a62.9248 62.9248 0 1 0 125.8496 0 62.9248 62.9248 0 1 0-125.8496 0Z" fill="#FFFFFF" p-id="8387"></path><path d="M609.5872 475.2384c-17.408 0-34.816-6.6048-48.0768-19.8656-26.5216-26.5216-26.5216-69.6832 0-96.2048s69.6832-26.5216 96.2048 0 26.5216 69.6832 0 96.2048c-13.2608 13.2096-30.72 19.8656-48.128 19.8656z m0-125.7472c-14.7968 0-29.5936 5.632-40.8576 16.896-22.528 22.528-22.528 59.1872 0 81.7152 10.9056 10.9056 25.4464 16.9472 40.8576 16.9472 15.4112 0 29.952-5.9904 40.8576-16.9472s16.9472-25.4464 16.9472-40.8576c0-15.4112-5.9904-29.952-16.9472-40.8576-11.264-11.264-26.0608-16.896-40.8576-16.896z" fill="#413D2C" p-id="8388"></path><path d="M516.7616 665.9072L486.4 671.232c-15.0016-104.0896-91.5456-134.4512-140.3904-143.1552l5.4272-30.976c45.2096 3.328 157.9008 26.0096 165.3248 168.8064z" fill="#FFFFFF" p-id="8389"></path><path d="M482.0992 677.1712l-0.768-5.2224c-14.7456-102.2976-91.6992-130.9184-136.2432-138.8544l-5.0176-0.8704 7.1168-40.5504 4.608 0.3584c48.5888 3.584 162.4576 27.648 170.0864 173.6704l0.256 4.5056-40.0384 6.9632z m-130.1504-153.1904c47.0016 9.472 121.856 40.4992 138.752 141.312l20.736-3.6352c-8.96-129.4848-108.1344-154.5216-155.6992-159.0784l-3.7888 21.4016z" fill="#413D2C" p-id="8390"></path></svg>